<svg xmlns="http://www.w3.org/2000/svg" xmlns:xlink="http://www.w3.org/1999/xlink" width="500" zoomAndPan="magnify" viewBox="0 0 375 374.999991" height="500" preserveAspectRatio="xMidYMid meet" version="1.0"><defs><g/><clipPath id="id1"><path d="M 232 133 L 246.824219 133 L 246.824219 137 L 232 137 Z M 232 133 " clip-rule="nonzero"/></clipPath></defs><rect x="-37.5" width="450" fill="#ffffff" y="-37.499999" height="449.999989" fill-opacity="1"/><rect x="-37.5" width="450" fill="#ffffff" y="-37.499999" height="449.999989" fill-opacity="1"/><rect x="-37.5" width="450" fill="#ffffff" y="-37.499999" height="449.999989" fill-opacity="1"/><rect x="-37.5" width="450" fill="#ffffff" y="-37.499999" height="449.999989" fill-opacity="1"/><g clip-path="url(#id1)"><path fill="#000000" d="M 244.980469 133.960938 C 241.363281 132.875 237.664062 133.890625 233.984375 133.941406 C 232.1875 133.96875 232.414062 136.75 234.203125 136.722656 C 237.621094 136.675781 241.082031 135.679688 244.441406 136.703125 C 246.171875 137.222656 246.6875 134.46875 244.980469 133.960938 Z M 244.980469 133.960938 " fill-opacity="1" fill-rule="nonzero"/></g><path fill="#000000" d="M 236.695312 161.632812 C 235.425781 160.347656 233.59375 162.457031 234.851562 163.726562 C 236.695312 165.589844 238.742188 167.835938 238.851562 170.59375 C 238.921875 172.394531 241.707031 172.179688 241.636719 170.382812 C 241.488281 166.867188 239.054688 164.023438 236.695312 161.632812 Z M 236.695312 161.632812 " fill-opacity="1" fill-rule="nonzero"/><path fill="#73a0b1" d="M 207.457031 179.925781 L 207.457031 179.910156 C 207.273438 179.667969 207.058594 179.453125 206.816406 179.269531 C 204.625 177.507812 201.113281 177.527344 198.4375 177.457031 C 194.738281 177.355469 191.011719 177.066406 187.328125 177.550781 C 185.621094 177.773438 183.941406 178.253906 182.230469 178.382812 C 181.007812 178.476562 179.78125 178.507812 178.566406 178.613281 C 177.226562 178.722656 175.789062 178.816406 174.539062 179.347656 C 173.511719 179.789062 173.183594 181.105469 174.6875 180.917969 C 175.144531 180.832031 175.519531 180.96875 175.820312 181.324219 C 176.71875 181.324219 177.617188 181.324219 178.515625 181.304688 C 183.070312 181.246094 187.628906 181.144531 192.179688 181.351562 C 194.867188 181.476562 197.519531 181.855469 200.207031 181.636719 C 202.136719 181.484375 204.136719 181.289062 205.96875 180.675781 C 206.359375 180.5625 206.734375 180.410156 207.09375 180.21875 C 207.226562 180.140625 207.359375 180.050781 207.480469 179.957031 C 207.433594 179.976562 207.4375 179.957031 207.457031 179.925781 Z M 207.457031 179.925781 " fill-opacity="1" fill-rule="nonzero"/><path fill="#fdbe10" d="M 194.683594 158.570312 C 195.546875 155.089844 196.777344 151.746094 198.382812 148.539062 C 197.746094 148.269531 197.1875 147.890625 196.703125 147.398438 C 195.984375 147.761719 195.226562 147.96875 194.421875 148.03125 C 193.621094 148.09375 192.839844 148 192.074219 147.753906 C 191.253906 147.503906 190.488281 147.136719 189.78125 146.652344 C 188.421875 147.253906 186.878906 147.320312 185.390625 147.34375 L 184.542969 147.34375 C 188.796875 155.503906 189.65625 165.59375 189.683594 174.5 L 189.683594 174.53125 C 190.035156 174.507812 190.382812 174.488281 190.734375 174.480469 C 191.28125 174.480469 191.824219 174.480469 192.367188 174.496094 C 192.183594 174.339844 192.050781 174.148438 191.976562 173.921875 C 191.898438 173.691406 191.890625 173.457031 191.945312 173.222656 C 192.910156 168.351562 193.492188 163.398438 194.683594 158.570312 Z M 194.683594 158.570312 " fill-opacity="1" fill-rule="nonzero"/><path fill="#73a0b1" d="M 202.542969 201.273438 C 201.585938 201.25 200.882812 200.488281 201.078125 199.585938 C 201.007812 199.59375 200.9375 199.601562 200.867188 199.601562 C 195.320312 199.625 189.789062 200.15625 184.238281 200.023438 C 181.933594 199.96875 178.585938 200.007812 176.121094 198.921875 C 175.378906 201.535156 176.089844 204.46875 179.179688 205.28125 C 182.757812 206.21875 186.472656 205.117188 190.097656 205.191406 C 192.085938 205.234375 194.066406 205.425781 196.054688 205.453125 C 197.796875 205.476562 199.9375 205.589844 201.550781 204.84375 C 202.585938 204.339844 203.328125 203.554688 203.769531 202.488281 C 204.167969 201.460938 203.496094 201.300781 202.542969 201.273438 Z M 202.542969 201.273438 " fill-opacity="1" fill-rule="nonzero"/><path fill="#fdbe10" d="M 189.675781 138.628906 C 188.84375 139.738281 189.316406 141.550781 189.875 142.671875 C 189.945312 142.804688 190.019531 142.933594 190.089844 143.054688 L 190.28125 142.875 C 191.199219 141.964844 192.976562 140.261719 192.898438 138.804688 C 192.8125 137.609375 190.25 137.871094 189.675781 138.628906 Z M 189.675781 138.628906 " fill-opacity="1" fill-rule="nonzero"/><path fill="#73a0b1" d="M 202.535156 192.292969 C 202.386719 192.058594 202.308594 191.800781 202.304688 191.523438 C 200.820312 192.207031 198.980469 192.335938 197.421875 192.429688 C 195.191406 192.566406 192.972656 192.53125 190.734375 192.496094 C 185.886719 192.421875 180.582031 192.730469 176.15625 190.488281 C 175.464844 191.253906 174.941406 192.121094 174.582031 193.089844 C 174.320312 193.875 174.410156 194.378906 174.816406 194.71875 C 175.214844 194.695312 175.542969 194.835938 175.796875 195.144531 L 175.890625 195.164062 C 176.152344 195.226562 176.382812 195.351562 176.582031 195.539062 C 176.777344 195.726562 176.914062 195.949219 176.992188 196.210938 C 177.917969 196.671875 179.128906 196.816406 180.003906 196.933594 C 181.871094 197.167969 183.75 197.273438 185.632812 197.246094 C 190.644531 197.246094 195.644531 196.828125 200.652344 196.808594 C 200.941406 196.800781 201.207031 196.875 201.449219 197.03125 C 201.6875 197.1875 201.863281 197.398438 201.976562 197.664062 C 202.871094 195.929688 203.707031 194.101562 202.535156 192.292969 Z M 202.535156 192.292969 " fill-opacity="1" fill-rule="nonzero"/><path fill="#73a0b1" d="M 202.953125 184.339844 C 202.90625 184.28125 202.867188 184.21875 202.832031 184.15625 C 201.523438 184.339844 200.191406 184.457031 198.867188 184.507812 C 197.496094 184.5625 196.144531 184.359375 194.78125 184.265625 C 192.515625 184.113281 190.242188 184.039062 187.976562 184.019531 C 184.3125 183.984375 180.664062 184.0625 177.011719 184.097656 C 176.648438 184.378906 176.238281 184.488281 175.78125 184.421875 C 175.324219 185.304688 174.996094 186.390625 175.433594 187.117188 C 175.734375 187.085938 176.007812 187.152344 176.257812 187.324219 C 180.550781 190.0625 185.925781 189.628906 190.804688 189.710938 C 192.824219 189.746094 194.851562 189.78125 196.871094 189.660156 C 198.367188 189.570312 200.398438 189.601562 201.667969 188.671875 C 202.628906 187.96875 203.636719 188.742188 203.785156 189.65625 C 205.027344 188.183594 204.121094 185.867188 202.953125 184.339844 Z M 202.953125 184.339844 " fill-opacity="1" fill-rule="nonzero"/><path fill="#fdbe10" d="M 223.699219 136.5625 C 223.226562 130.457031 222.109375 123.613281 218.414062 118.539062 C 214.078125 112.578125 207.046875 111.515625 200.136719 110.953125 C 195.726562 110.621094 191.308594 110.542969 186.882812 110.71875 C 183.328125 110.835938 179.78125 111.035156 176.347656 112.058594 C 170.464844 113.820312 165.683594 117.476562 162.210938 122.519531 C 160.164062 125.515625 158.253906 128.832031 157.332031 132.359375 C 156.367188 136.125 156.054688 139.941406 156.398438 143.816406 C 157 151.082031 158.722656 159.527344 165.273438 163.789062 C 167.988281 165.558594 171.058594 166.996094 173.152344 169.542969 C 174.460938 171.148438 175.324219 173.230469 176.09375 175.140625 C 176.21875 175.421875 176.238281 175.707031 176.15625 176 C 177.664062 175.773438 179.242188 175.757812 180.605469 175.683594 C 182.726562 175.566406 184.792969 175.160156 186.886719 174.84375 L 186.886719 174.710938 C 186.886719 169.140625 186.507812 163.476562 185.261719 158.035156 C 184.398438 154.261719 183.167969 150.4375 181.195312 147.074219 C 180.515625 146.941406 179.875 146.707031 179.273438 146.371094 C 177.441406 145.300781 177.015625 143.433594 178.089844 141.609375 C 178.503906 140.910156 179.613281 140.46875 180.261719 141.183594 C 181.199219 142.210938 182.050781 143.300781 182.820312 144.457031 C 184.160156 144.597656 185.5 144.597656 186.839844 144.457031 C 187.125 144.433594 187.382812 144.398438 187.625 144.359375 C 187.386719 143.957031 187.1875 143.542969 187.023438 143.105469 C 186.289062 141.140625 186.128906 138.707031 187.445312 136.941406 C 188.820312 135.097656 191.695312 134.742188 193.703125 135.730469 C 195.832031 136.777344 196.042969 139.082031 195.082031 141.054688 C 194.371094 142.496094 193.433594 143.769531 192.273438 144.875 C 193.296875 145.210938 194.308594 145.175781 195.304688 144.765625 C 194.625 141.582031 196.40625 137.460938 200.296875 138.632812 C 200.847656 138.800781 201.4375 139.242188 201.421875 139.898438 C 201.367188 140.980469 201.132812 142.019531 200.710938 143.015625 C 200.289062 144.015625 199.707031 144.910156 198.964844 145.699219 C 199.183594 145.867188 199.421875 145.988281 199.679688 146.070312 C 200.453125 144.632812 201.371094 143.296875 202.429688 142.054688 C 203.738281 140.574219 205.957031 139.289062 207.5 141.308594 C 208.847656 143.070312 206.398438 145.574219 205.226562 146.660156 C 204.054688 147.746094 202.808594 148.65625 201.300781 148.886719 C 200.40625 150.5 199.632812 152.164062 198.980469 153.886719 C 196.625 160.273438 195.996094 167.105469 194.683594 173.746094 C 194.628906 174.078125 194.46875 174.347656 194.207031 174.558594 C 194.929688 174.589844 195.652344 174.621094 196.375 174.628906 C 197.898438 174.644531 199.429688 174.683594 200.949219 174.804688 C 202.335938 174.886719 203.707031 175.085938 205.0625 175.398438 C 206.859375 168.117188 215.335938 164.46875 219.066406 158.335938 C 223.085938 151.75 224.289062 144.164062 223.699219 136.5625 Z M 223.699219 136.5625 " fill-opacity="1" fill-rule="nonzero"/><path fill="#73a0b1" d="M 197.960938 142.480469 C 198.136719 142.179688 198.273438 141.863281 198.378906 141.535156 C 198.144531 141.808594 198.007812 142.125 197.960938 142.480469 Z M 197.960938 142.480469 " fill-opacity="1" fill-rule="nonzero"/><path fill="#000000" d="M 223.949219 123.378906 C 222.042969 117.859375 218.484375 113.148438 213.074219 110.703125 C 209.550781 109.101562 205.539062 108.683594 201.71875 108.316406 C 197.40625 107.921875 193.082031 107.777344 188.75 107.886719 C 181.90625 108.011719 175.269531 108.640625 169.21875 112.09375 C 163.644531 115.277344 159.972656 120.484375 156.914062 125.953125 C 153.207031 132.597656 152.929688 140.742188 154.121094 148.085938 C 155.203125 154.757812 157.339844 161.503906 163.0625 165.628906 C 165.574219 167.441406 168.476562 168.683594 170.65625 170.921875 C 171.988281 172.285156 172.75 174.320312 173.453125 176.0625 C 173.535156 176.265625 173.65625 176.441406 173.816406 176.585938 C 173.234375 176.804688 172.695312 177.101562 172.203125 177.476562 C 169.796875 179.339844 170.742188 182.621094 173.117188 183.492188 C 172.980469 183.835938 172.871094 184.164062 172.78125 184.433594 C 172.230469 186.148438 172.328125 188.082031 173.492188 189.300781 C 172.558594 190.523438 171.820312 191.957031 171.660156 193.457031 C 171.457031 195.242188 172.328125 196.53125 173.6875 197.28125 C 172.195312 201.035156 173.144531 205.496094 177.089844 207.394531 C 181.488281 209.511719 186.695312 207.804688 191.359375 207.992188 C 195.8125 208.171875 201.484375 209.253906 204.933594 205.703125 C 206.015625 204.59375 206.90625 202.882812 206.648438 201.292969 C 206.433594 199.957031 205.542969 199.203125 204.445312 198.828125 C 205.507812 196.535156 206.40625 194.328125 205.476562 191.941406 C 207.832031 189.835938 207.429688 186.238281 205.828125 183.589844 C 207.183594 183.265625 208.523438 182.773438 209.535156 181.800781 C 210.992188 180.402344 210.058594 178.46875 208.84375 177.324219 C 208.488281 176.992188 208.105469 176.703125 207.691406 176.457031 C 208.253906 173.925781 209.953125 171.910156 211.738281 170.058594 C 213.953125 167.761719 216.421875 165.71875 218.609375 163.390625 C 223.46875 158.21875 225.917969 150.984375 226.492188 144.011719 C 227.0625 136.960938 226.214844 130.082031 223.949219 123.378906 Z M 174.8125 194.71875 C 174.410156 194.378906 174.316406 193.863281 174.582031 193.089844 C 174.9375 192.121094 175.460938 191.253906 176.152344 190.488281 C 180.582031 192.730469 185.882812 192.421875 190.730469 192.496094 C 192.960938 192.53125 195.179688 192.566406 197.421875 192.429688 C 198.976562 192.335938 200.824219 192.207031 202.304688 191.523438 C 202.304688 191.800781 202.382812 192.058594 202.53125 192.292969 C 203.703125 194.101562 202.867188 195.929688 201.96875 197.675781 C 201.859375 197.410156 201.683594 197.199219 201.441406 197.042969 C 201.199219 196.886719 200.9375 196.808594 200.648438 196.816406 C 195.636719 196.839844 190.640625 197.25 185.628906 197.257812 C 183.742188 197.28125 181.867188 197.179688 179.996094 196.945312 C 179.121094 196.828125 177.902344 196.683594 176.988281 196.222656 C 176.910156 195.960938 176.773438 195.738281 176.574219 195.550781 C 176.378906 195.363281 176.148438 195.238281 175.886719 195.175781 L 175.792969 195.152344 C 175.539062 194.84375 175.214844 194.699219 174.8125 194.71875 Z M 203.769531 202.46875 C 203.328125 203.53125 202.585938 204.316406 201.550781 204.824219 C 199.929688 205.570312 197.785156 205.457031 196.054688 205.433594 C 194.066406 205.402344 192.085938 205.210938 190.097656 205.171875 C 186.472656 205.09375 182.769531 206.199219 179.179688 205.257812 C 176.089844 204.445312 175.378906 201.511719 176.121094 198.898438 C 178.597656 199.988281 181.945312 199.945312 184.238281 200.003906 C 189.789062 200.136719 195.320312 199.601562 200.867188 199.578125 C 200.9375 199.578125 201.007812 199.574219 201.078125 199.5625 C 200.882812 200.46875 201.585938 201.230469 202.542969 201.253906 C 203.496094 201.277344 204.167969 201.460938 203.769531 202.46875 Z M 203.769531 189.652344 C 203.617188 188.742188 202.609375 187.96875 201.648438 188.671875 C 200.378906 189.597656 198.347656 189.566406 196.851562 189.65625 C 194.835938 189.78125 192.804688 189.742188 190.785156 189.707031 C 185.90625 189.628906 180.535156 190.0625 176.238281 187.320312 C 175.988281 187.152344 175.714844 187.082031 175.417969 187.113281 C 174.988281 186.390625 175.304688 185.300781 175.765625 184.421875 C 176.222656 184.484375 176.632812 184.371094 176.996094 184.085938 C 180.664062 184.050781 184.304688 183.976562 187.964844 184.007812 C 190.234375 184.027344 192.511719 184.101562 194.769531 184.253906 C 196.132812 184.351562 197.484375 184.554688 198.851562 184.5 C 200.175781 184.445312 201.5 184.328125 202.820312 184.144531 C 202.855469 184.210938 202.894531 184.269531 202.9375 184.328125 C 204.121094 185.867188 205.027344 188.183594 203.773438 189.652344 Z M 207.082031 180.203125 C 206.722656 180.394531 206.347656 180.546875 205.957031 180.660156 C 204.125 181.273438 202.121094 181.46875 200.199219 181.621094 C 197.511719 181.839844 194.859375 181.460938 192.167969 181.335938 C 187.617188 181.128906 183.058594 181.230469 178.503906 181.289062 C 177.605469 181.300781 176.710938 181.304688 175.808594 181.308594 C 175.511719 180.953125 175.132812 180.816406 174.675781 180.902344 C 173.171875 181.097656 173.503906 179.777344 174.527344 179.332031 C 175.777344 178.808594 177.21875 178.707031 178.554688 178.597656 C 179.773438 178.492188 181.003906 178.460938 182.21875 178.367188 C 183.933594 178.238281 185.621094 177.757812 187.316406 177.535156 C 191.003906 177.050781 194.726562 177.339844 198.429688 177.441406 C 201.105469 177.511719 204.617188 177.492188 206.804688 179.253906 C 207.046875 179.4375 207.261719 179.652344 207.445312 179.894531 L 207.445312 179.910156 C 207.421875 179.941406 207.417969 179.964844 207.460938 179.933594 C 207.34375 180.035156 207.21875 180.128906 207.089844 180.210938 Z M 189.78125 146.652344 C 190.488281 147.136719 191.253906 147.503906 192.074219 147.753906 C 192.839844 148 193.621094 148.09375 194.421875 148.03125 C 195.226562 147.96875 195.984375 147.761719 196.703125 147.398438 C 197.1875 147.890625 197.746094 148.269531 198.382812 148.539062 C 196.777344 151.746094 195.546875 155.089844 194.683594 158.570312 C 193.492188 163.398438 192.910156 168.351562 191.949219 173.214844 C 191.890625 173.449219 191.902344 173.683594 191.976562 173.914062 C 192.054688 174.140625 192.183594 174.332031 192.371094 174.488281 C 191.828125 174.472656 191.28125 174.464844 190.734375 174.472656 C 190.382812 174.472656 190.03125 174.5 189.6875 174.523438 L 189.6875 174.492188 C 189.667969 165.578125 188.796875 155.496094 184.542969 147.34375 L 185.394531 147.34375 C 186.878906 147.320312 188.421875 147.253906 189.78125 146.652344 Z M 189.675781 138.628906 C 190.25 137.84375 192.816406 137.609375 192.886719 138.804688 C 192.976562 140.253906 191.199219 141.964844 190.269531 142.875 L 190.082031 143.054688 C 190.007812 142.933594 189.933594 142.792969 189.867188 142.671875 C 189.316406 141.550781 188.84375 139.738281 189.675781 138.628906 Z M 197.960938 142.480469 C 198.007812 142.125 198.144531 141.808594 198.378906 141.535156 C 198.273438 141.863281 198.136719 142.179688 197.960938 142.480469 Z M 219.070312 158.347656 C 215.339844 164.480469 206.867188 168.125 205.066406 175.40625 C 203.714844 175.09375 202.34375 174.898438 200.953125 174.816406 C 199.433594 174.695312 197.90625 174.65625 196.382812 174.640625 C 195.65625 174.640625 194.933594 174.601562 194.210938 174.570312 C 194.476562 174.359375 194.636719 174.089844 194.691406 173.757812 C 196 167.117188 196.628906 160.285156 198.984375 153.898438 C 199.640625 152.175781 200.414062 150.507812 201.304688 148.898438 C 202.808594 148.664062 204.019531 147.789062 205.230469 146.671875 C 206.445312 145.554688 208.851562 143.078125 207.503906 141.320312 C 205.960938 139.300781 203.753906 140.585938 202.4375 142.066406 C 201.375 143.300781 200.457031 144.636719 199.679688 146.070312 C 199.421875 145.988281 199.183594 145.867188 198.964844 145.699219 C 199.707031 144.910156 200.289062 144.015625 200.710938 143.015625 C 201.132812 142.019531 201.367188 140.980469 201.421875 139.898438 C 201.4375 139.242188 200.847656 138.800781 200.296875 138.632812 C 196.40625 137.460938 194.625 141.582031 195.304688 144.765625 C 194.308594 145.175781 193.296875 145.210938 192.273438 144.875 C 193.4375 143.773438 194.378906 142.503906 195.09375 141.066406 C 196.058594 139.089844 195.84375 136.785156 193.714844 135.742188 C 191.707031 134.753906 188.832031 135.109375 187.457031 136.953125 C 186.148438 138.71875 186.300781 141.152344 187.035156 143.117188 C 187.199219 143.550781 187.398438 143.96875 187.636719 144.367188 C 187.398438 144.410156 187.144531 144.441406 186.851562 144.46875 C 185.511719 144.605469 184.171875 144.605469 182.832031 144.46875 C 182.0625 143.3125 181.210938 142.21875 180.273438 141.195312 C 179.625 140.480469 178.515625 140.917969 178.101562 141.621094 C 177.027344 143.449219 177.457031 145.3125 179.289062 146.378906 C 179.890625 146.71875 180.53125 146.953125 181.207031 147.085938 C 183.1875 150.449219 184.410156 154.273438 185.273438 158.046875 C 186.519531 163.488281 186.890625 169.148438 186.898438 174.71875 L 186.898438 174.851562 C 184.804688 175.164062 182.734375 175.578125 180.617188 175.691406 C 179.25 175.769531 177.671875 175.785156 176.167969 176.011719 C 176.25 175.71875 176.230469 175.429688 176.105469 175.152344 C 175.335938 173.238281 174.484375 171.15625 173.164062 169.554688 C 171.070312 167.003906 168.003906 165.570312 165.289062 163.800781 C 158.742188 159.539062 157.011719 151.09375 156.410156 143.824219 C 156.070312 139.953125 156.378906 136.136719 157.34375 132.371094 C 158.265625 128.839844 160.175781 125.523438 162.226562 122.53125 C 165.6875 117.476562 170.46875 113.820312 176.359375 112.070312 C 179.792969 111.042969 183.339844 110.847656 186.898438 110.726562 C 191.320312 110.554688 195.738281 110.632812 200.152344 110.964844 C 207.0625 111.519531 214.09375 112.578125 218.429688 118.546875 C 222.117188 123.601562 223.226562 130.449219 223.699219 136.5625 C 224.289062 144.164062 223.085938 151.75 219.070312 158.347656 Z M 219.070312 158.347656 " fill-opacity="1" fill-rule="nonzero"/><path fill="#000000" d="M 181.871094 88.527344 L 181.871094 96.375 C 181.871094 98.175781 184.65625 97.945312 184.65625 96.160156 L 184.65625 88.3125 C 184.65625 86.515625 181.871094 86.738281 181.871094 88.527344 Z M 181.871094 88.527344 " fill-opacity="1" fill-rule="nonzero"/><path fill="#000000" d="M 156.167969 97.832031 C 156.117188 96.035156 153.332031 96.261719 153.382812 98.046875 C 153.433594 99.875 153.980469 101.582031 154.691406 103.261719 C 155.359375 104.828125 156.121094 106.355469 156.175781 108.09375 C 156.230469 109.890625 159.015625 109.664062 158.960938 107.878906 C 158.847656 104.300781 156.265625 101.414062 156.167969 97.832031 Z M 156.167969 97.832031 " fill-opacity="1" fill-rule="nonzero"/><path fill="#000000" d="M 138.054688 139.574219 C 136.410156 136.960938 133.789062 135.289062 131.914062 132.878906 C 130.808594 131.464844 128.488281 133.019531 129.59375 134.449219 C 131.472656 136.855469 134.105469 138.542969 135.742188 141.148438 C 136.699219 142.664062 139.011719 141.097656 138.054688 139.574219 Z M 138.054688 139.574219 " fill-opacity="1" fill-rule="nonzero"/><path fill="#000000" d="M 220.46875 93.992188 C 218.160156 95.726562 215.792969 97.503906 214.414062 100.109375 C 213.570312 101.703125 216.078125 102.9375 216.914062 101.351562 C 218.054688 99.195312 220.121094 97.738281 222.03125 96.304688 C 223.46875 95.238281 221.914062 92.910156 220.46875 93.992188 Z M 220.46875 93.992188 " fill-opacity="1" fill-rule="nonzero"/><path fill="#000000" d="M 150.109375 165.539062 C 146.988281 162.8125 144.285156 168.445312 142.277344 169.894531 C 140.8125 170.941406 142.371094 173.261719 143.847656 172.210938 C 144.863281 171.480469 145.636719 170.460938 146.441406 169.523438 C 146.871094 168.996094 147.339844 168.503906 147.84375 168.050781 C 148.105469 167.839844 148.453125 167.789062 148.285156 167.636719 C 149.625 168.824219 151.464844 166.722656 150.109375 165.539062 Z M 150.109375 165.539062 " fill-opacity="1" fill-rule="nonzero"/><g fill="#000000" fill-opacity="1"><g transform="translate(104.993338, 257.378278)"><g><path d="M 19.65625 -22.828125 C 18.285156 -23.726562 15.113281 -24.574219 14.480469 -26.265625 C 13.527344 -28.851562 17.070312 -30.703125 18.867188 -31.496094 C 23.464844 -33.660156 19.445312 -40.53125 14.847656 -38.363281 C 7.769531 -35.035156 2.855469 -25.578125 9.933594 -19.5 C 12.417969 -17.28125 17.332031 -16.433594 17.863281 -12.578125 C 18.074219 -10.886719 17.28125 -9.40625 15.800781 -8.773438 C 14.796875 -8.296875 11.097656 -7.714844 10.25 -8.878906 C 7.1875 -12.894531 0.316406 -8.984375 3.382812 -4.914062 C 9.617188 3.328125 24.519531 -0.105469 25.683594 -10.726562 C 26.210938 -15.535156 23.675781 -20.132812 19.65625 -22.828125 Z M 19.65625 -22.828125 "/></g></g></g><g fill="#000000" fill-opacity="1"><g transform="translate(133.421679, 257.378278)"><g><path d="M 39.421875 -18.761719 C 39.371094 -23.355469 38.789062 -29.011719 35.089844 -32.234375 C 31.019531 -35.828125 27.054688 -33.925781 23.992188 -30.28125 C 23.886719 -30.4375 23.726562 -30.648438 23.621094 -30.859375 C 20.769531 -35.246094 14.742188 -34.929688 11.257812 -31.546875 C 7.503906 -27.847656 5.601562 -21.824219 4.492188 -16.859375 C 3.328125 -11.414062 2.960938 -5.8125 2.640625 -0.265625 C 2.324219 4.808594 10.25 4.808594 10.570312 -0.265625 C 10.9375 -6.921875 11.363281 -13.6875 13.632812 -20.027344 C 14.164062 -21.402344 14.742188 -22.777344 15.535156 -24.097656 C 15.800781 -24.519531 16.488281 -25.945312 17.121094 -26.105469 C 17.121094 -26.105469 17.175781 -26.105469 17.175781 -26.15625 C 17.175781 -26.050781 17.175781 -26 17.28125 -25.894531 C 17.914062 -25.046875 17.703125 -22.566406 17.753906 -21.5625 C 17.808594 -19.65625 17.703125 -17.703125 17.492188 -15.800781 C 17.070312 -11.414062 24.574219 -10.359375 25.3125 -14.742188 C 25.734375 -17.597656 26.632812 -20.238281 28.167969 -22.671875 C 28.695312 -23.410156 29.855469 -24.363281 30.542969 -25.257812 C 30.648438 -24.414062 31.074219 -23.570312 31.179688 -22.722656 C 32.445312 -15.746094 31.074219 -7.980469 30.386719 -0.953125 C 29.855469 4.121094 37.785156 4.070312 38.3125 -0.953125 C 38.894531 -6.871094 39.527344 -12.839844 39.421875 -18.761719 Z M 39.421875 -18.761719 "/></g></g></g><g fill="#000000" fill-opacity="1"><g transform="translate(175.535793, 257.378278)"><g><path d="M 27.320312 -23.09375 C 27.164062 -27.691406 27.054688 -39.738281 19.234375 -36.410156 C 14.164062 -34.242188 10.304688 -27.636719 8.136719 -22.828125 C 5.285156 -16.433594 3.910156 -9.617188 2.695312 -2.695312 C 1.796875 2.273438 9.40625 4.4375 10.304688 -0.582031 C 10.78125 -3.277344 11.257812 -5.917969 11.835938 -8.5625 L 19.765625 -8.296875 C 19.871094 -6.183594 19.921875 -4.070312 19.976562 -1.957031 C 20.082031 3.117188 28.007812 3.117188 27.847656 -1.957031 C 27.691406 -8.984375 27.585938 -16.066406 27.320312 -23.09375 Z M 14.058594 -16.433594 C 14.164062 -16.699219 14.269531 -17.015625 14.375 -17.28125 C 15.273438 -19.65625 16.433594 -21.929688 17.808594 -24.042969 C 18.285156 -24.785156 18.8125 -25.417969 19.339844 -26.105469 C 19.394531 -25.046875 19.339844 -23.992188 19.394531 -23.09375 C 19.5 -20.820312 19.550781 -18.496094 19.605469 -16.222656 C 17.753906 -16.277344 15.90625 -16.328125 14.058594 -16.433594 Z M 14.058594 -16.433594 "/></g></g></g><g fill="#000000" fill-opacity="1"><g transform="translate(206.077773, 257.378278)"><g><path d="M 30.015625 -4.914062 C 27.109375 -8.929688 23.78125 -12.472656 19.976562 -15.535156 C 22.828125 -17.542969 25.207031 -20.292969 26.210938 -23.304688 C 28.21875 -29.382812 22.828125 -35.246094 16.699219 -34.984375 C 10.199219 -34.71875 5.917969 -28.695312 4.757812 -22.828125 C 3.222656 -15.21875 3.222656 -7.082031 2.640625 0.632812 C 2.21875 5.707031 10.144531 5.65625 10.570312 0.632812 C 10.886719 -3.59375 11.203125 -7.769531 11.574219 -11.941406 C 16.066406 -8.984375 19.976562 -5.285156 23.199219 -0.898438 C 26.15625 3.171875 33.082031 -0.792969 30.015625 -4.914062 Z M 15.90625 -22.566406 C 14.796875 -21.5625 13.738281 -20.820312 12.367188 -20.609375 C 12.523438 -21.507812 12.734375 -22.40625 13.105469 -23.25 C 13.476562 -24.308594 17.96875 -29.699219 18.707031 -26.105469 C 18.917969 -25.207031 16.539062 -23.09375 15.90625 -22.566406 Z M 15.90625 -22.566406 "/></g></g></g><g fill="#000000" fill-opacity="1"><g transform="translate(239.525985, 257.378278)"><g><path d="M 24.042969 -36.304688 C 18.179688 -37.042969 12.3125 -37.148438 6.394531 -36.515625 C 1.375 -36.039062 1.320312 -28.113281 6.394531 -28.640625 C 7.980469 -28.800781 9.511719 -28.851562 11.042969 -28.957031 C 10.570312 -21.191406 10.144531 -13.476562 9.671875 -5.761719 C 9.351562 -0.632812 17.28125 -0.6875 17.597656 -5.761719 C 18.074219 -13.421875 18.496094 -21.136719 18.972656 -28.851562 C 20.664062 -28.746094 22.351562 -28.589844 24.042969 -28.378906 C 29.117188 -27.691406 29.066406 -35.617188 24.042969 -36.304688 Z M 24.042969 -36.304688 "/></g></g></g><g fill="#fdbe10" fill-opacity="1"><g transform="translate(140.80397, 285.44922)"><g><path d="M 6.171875 -6.46875 L 8.75 -6.46875 C 9.269531 -6.445312 9.59375 -6.3125 9.71875 -6.0625 C 9.8125 -5.875 9.859375 -5.597656 9.859375 -5.234375 L 9.859375 -2.015625 C 9.859375 -1.703125 9.722656 -1.40625 9.453125 -1.125 C 8.628906 -0.28125 7.398438 0.140625 5.765625 0.140625 C 4.304688 0.140625 3.039062 -0.40625 1.96875 -1.5 C 0.894531 -2.59375 0.359375 -3.914062 0.359375 -5.46875 C 0.359375 -7.019531 0.90625 -8.3125 2 -9.34375 C 3.09375 -10.382812 4.378906 -10.90625 5.859375 -10.90625 C 7.015625 -10.90625 8.101562 -10.523438 9.125 -9.765625 C 9.382812 -9.578125 9.515625 -9.363281 9.515625 -9.125 C 9.515625 -8.882812 9.40625 -8.609375 9.1875 -8.296875 C 8.800781 -7.773438 8.453125 -7.515625 8.140625 -7.515625 C 7.960938 -7.515625 7.664062 -7.648438 7.25 -7.921875 C 6.84375 -8.191406 6.359375 -8.328125 5.796875 -8.328125 C 5.054688 -8.328125 4.394531 -8.0625 3.8125 -7.53125 C 3.238281 -7.007812 2.953125 -6.328125 2.953125 -5.484375 C 2.953125 -4.648438 3.242188 -3.9375 3.828125 -3.34375 C 4.410156 -2.75 5.078125 -2.453125 5.828125 -2.453125 C 6.359375 -2.453125 6.835938 -2.539062 7.265625 -2.71875 L 7.265625 -4.3125 L 6.109375 -4.3125 C 5.804688 -4.3125 5.59375 -4.347656 5.46875 -4.421875 C 5.34375 -4.503906 5.257812 -4.617188 5.21875 -4.765625 C 5.175781 -4.921875 5.15625 -5.128906 5.15625 -5.390625 C 5.15625 -5.648438 5.175781 -5.859375 5.21875 -6.015625 C 5.269531 -6.171875 5.351562 -6.273438 5.46875 -6.328125 C 5.644531 -6.421875 5.878906 -6.46875 6.171875 -6.46875 Z M 6.171875 -6.46875 "/></g></g></g><g fill="#fdbe10" fill-opacity="1"><g transform="translate(152.709461, 285.44922)"><g><path d="M 5.609375 -10.859375 C 7.054688 -10.859375 8.3125 -10.332031 9.375 -9.28125 C 10.4375 -8.238281 10.96875 -6.941406 10.96875 -5.390625 C 10.96875 -3.847656 10.457031 -2.535156 9.4375 -1.453125 C 8.425781 -0.367188 7.179688 0.171875 5.703125 0.171875 C 4.222656 0.171875 2.960938 -0.363281 1.921875 -1.4375 C 0.878906 -2.507812 0.359375 -3.785156 0.359375 -5.265625 C 0.359375 -6.078125 0.503906 -6.832031 0.796875 -7.53125 C 1.097656 -8.238281 1.488281 -8.832031 1.96875 -9.3125 C 2.457031 -9.789062 3.019531 -10.164062 3.65625 -10.4375 C 4.289062 -10.71875 4.941406 -10.859375 5.609375 -10.859375 Z M 2.953125 -5.328125 C 2.953125 -4.460938 3.234375 -3.757812 3.796875 -3.21875 C 4.359375 -2.675781 4.984375 -2.40625 5.671875 -2.40625 C 6.367188 -2.40625 6.992188 -2.671875 7.546875 -3.203125 C 8.097656 -3.734375 8.375 -4.441406 8.375 -5.328125 C 8.375 -6.210938 8.09375 -6.921875 7.53125 -7.453125 C 6.976562 -7.992188 6.351562 -8.265625 5.65625 -8.265625 C 4.96875 -8.265625 4.34375 -7.992188 3.78125 -7.453125 C 3.226562 -6.910156 2.953125 -6.203125 2.953125 -5.328125 Z M 2.953125 -5.328125 "/></g></g></g><g fill="#fdbe10" fill-opacity="1"><g transform="translate(165.507076, 285.44922)"><g><path d="M 5.609375 -10.859375 C 7.054688 -10.859375 8.3125 -10.332031 9.375 -9.28125 C 10.4375 -8.238281 10.96875 -6.941406 10.96875 -5.390625 C 10.96875 -3.847656 10.457031 -2.535156 9.4375 -1.453125 C 8.425781 -0.367188 7.179688 0.171875 5.703125 0.171875 C 4.222656 0.171875 2.960938 -0.363281 1.921875 -1.4375 C 0.878906 -2.507812 0.359375 -3.785156 0.359375 -5.265625 C 0.359375 -6.078125 0.503906 -6.832031 0.796875 -7.53125 C 1.097656 -8.238281 1.488281 -8.832031 1.96875 -9.3125 C 2.457031 -9.789062 3.019531 -10.164062 3.65625 -10.4375 C 4.289062 -10.71875 4.941406 -10.859375 5.609375 -10.859375 Z M 2.953125 -5.328125 C 2.953125 -4.460938 3.234375 -3.757812 3.796875 -3.21875 C 4.359375 -2.675781 4.984375 -2.40625 5.671875 -2.40625 C 6.367188 -2.40625 6.992188 -2.671875 7.546875 -3.203125 C 8.097656 -3.734375 8.375 -4.441406 8.375 -5.328125 C 8.375 -6.210938 8.09375 -6.921875 7.53125 -7.453125 C 6.976562 -7.992188 6.351562 -8.265625 5.65625 -8.265625 C 4.96875 -8.265625 4.34375 -7.992188 3.78125 -7.453125 C 3.226562 -6.910156 2.953125 -6.203125 2.953125 -5.328125 Z M 2.953125 -5.328125 "/></g></g></g><g fill="#fdbe10" fill-opacity="1"><g transform="translate(178.304691, 285.44922)"><g><path d="M 1.890625 -10.734375 L 4.59375 -10.71875 C 6.007812 -10.71875 7.253906 -10.207031 8.328125 -9.1875 C 9.398438 -8.164062 9.9375 -6.910156 9.9375 -5.421875 C 9.9375 -3.941406 9.410156 -2.671875 8.359375 -1.609375 C 7.304688 -0.546875 6.035156 -0.015625 4.546875 -0.015625 L 1.875 -0.015625 C 1.28125 -0.015625 0.910156 -0.132812 0.765625 -0.375 C 0.640625 -0.582031 0.578125 -0.894531 0.578125 -1.3125 L 0.578125 -9.453125 C 0.578125 -9.679688 0.582031 -9.847656 0.59375 -9.953125 C 0.613281 -10.066406 0.664062 -10.195312 0.75 -10.34375 C 0.882812 -10.601562 1.265625 -10.734375 1.890625 -10.734375 Z M 4.59375 -2.609375 C 5.289062 -2.609375 5.921875 -2.867188 6.484375 -3.390625 C 7.054688 -3.910156 7.34375 -4.5625 7.34375 -5.34375 C 7.34375 -6.132812 7.066406 -6.796875 6.515625 -7.328125 C 5.960938 -7.859375 5.316406 -8.125 4.578125 -8.125 L 3.171875 -8.125 L 3.171875 -2.609375 Z M 4.59375 -2.609375 "/></g></g></g><g fill="#fdbe10" fill-opacity="1"><g transform="translate(190.063927, 285.44922)"><g/></g></g><g fill="#fdbe10" fill-opacity="1"><g transform="translate(195.227283, 285.44922)"><g><path d="M 0.578125 -9.4375 C 0.578125 -9.65625 0.582031 -9.820312 0.59375 -9.9375 C 0.613281 -10.050781 0.664062 -10.179688 0.75 -10.328125 C 0.882812 -10.585938 1.265625 -10.71875 1.890625 -10.71875 C 2.566406 -10.71875 2.96875 -10.535156 3.09375 -10.171875 C 3.144531 -10.015625 3.171875 -9.765625 3.171875 -9.421875 L 3.171875 -1.28125 C 3.171875 -1.050781 3.160156 -0.878906 3.140625 -0.765625 C 3.128906 -0.660156 3.085938 -0.535156 3.015625 -0.390625 C 2.878906 -0.128906 2.5 0 1.875 0 C 1.1875 0 0.785156 -0.1875 0.671875 -0.5625 C 0.609375 -0.71875 0.578125 -0.960938 0.578125 -1.296875 Z M 0.578125 -9.4375 "/></g></g></g><g fill="#fdbe10" fill-opacity="1"><g transform="translate(200.449142, 285.44922)"><g><path d="M 1.890625 -10.734375 L 4.59375 -10.71875 C 6.007812 -10.71875 7.253906 -10.207031 8.328125 -9.1875 C 9.398438 -8.164062 9.9375 -6.910156 9.9375 -5.421875 C 9.9375 -3.941406 9.410156 -2.671875 8.359375 -1.609375 C 7.304688 -0.546875 6.035156 -0.015625 4.546875 -0.015625 L 1.875 -0.015625 C 1.28125 -0.015625 0.910156 -0.132812 0.765625 -0.375 C 0.640625 -0.582031 0.578125 -0.894531 0.578125 -1.3125 L 0.578125 -9.453125 C 0.578125 -9.679688 0.582031 -9.847656 0.59375 -9.953125 C 0.613281 -10.066406 0.664062 -10.195312 0.75 -10.34375 C 0.882812 -10.601562 1.265625 -10.734375 1.890625 -10.734375 Z M 4.59375 -2.609375 C 5.289062 -2.609375 5.921875 -2.867188 6.484375 -3.390625 C 7.054688 -3.910156 7.34375 -4.5625 7.34375 -5.34375 C 7.34375 -6.132812 7.066406 -6.796875 6.515625 -7.328125 C 5.960938 -7.859375 5.316406 -8.125 4.578125 -8.125 L 3.171875 -8.125 L 3.171875 -2.609375 Z M 4.59375 -2.609375 "/></g></g></g><g fill="#fdbe10" fill-opacity="1"><g transform="translate(212.20838, 285.44922)"><g><path d="M 3.171875 -2.59375 L 7.671875 -2.59375 C 7.898438 -2.59375 8.066406 -2.582031 8.171875 -2.5625 C 8.285156 -2.550781 8.414062 -2.503906 8.5625 -2.421875 C 8.832031 -2.285156 8.96875 -1.90625 8.96875 -1.28125 C 8.96875 -0.601562 8.785156 -0.207031 8.421875 -0.09375 C 8.253906 -0.03125 8 0 7.65625 0 L 1.875 0 C 1.1875 0 0.785156 -0.1875 0.671875 -0.5625 C 0.609375 -0.71875 0.578125 -0.960938 0.578125 -1.296875 L 0.578125 -9.4375 C 0.578125 -9.925781 0.671875 -10.257812 0.859375 -10.4375 C 1.046875 -10.625 1.398438 -10.71875 1.921875 -10.71875 L 7.671875 -10.71875 C 7.898438 -10.71875 8.066406 -10.707031 8.171875 -10.6875 C 8.285156 -10.675781 8.414062 -10.632812 8.5625 -10.5625 C 8.832031 -10.425781 8.96875 -10.046875 8.96875 -9.421875 C 8.96875 -8.734375 8.785156 -8.332031 8.421875 -8.21875 C 8.253906 -8.15625 8 -8.125 7.65625 -8.125 L 3.171875 -8.125 L 3.171875 -6.65625 L 6.0625 -6.65625 C 6.289062 -6.65625 6.457031 -6.644531 6.5625 -6.625 C 6.675781 -6.613281 6.8125 -6.570312 6.96875 -6.5 C 7.226562 -6.351562 7.359375 -5.972656 7.359375 -5.359375 C 7.359375 -4.671875 7.171875 -4.269531 6.796875 -4.15625 C 6.628906 -4.09375 6.378906 -4.0625 6.046875 -4.0625 L 3.171875 -4.0625 Z M 3.171875 -2.59375 "/></g></g></g><g fill="#fdbe10" fill-opacity="1"><g transform="translate(223.002367, 285.44922)"><g><path d="M 6.765625 -9.953125 L 10.71875 -1.796875 C 10.882812 -1.460938 10.96875 -1.210938 10.96875 -1.046875 C 10.96875 -0.703125 10.6875 -0.390625 10.125 -0.109375 C 9.789062 0.0546875 9.523438 0.140625 9.328125 0.140625 C 9.140625 0.140625 8.984375 0.0976562 8.859375 0.015625 C 8.742188 -0.0664062 8.660156 -0.15625 8.609375 -0.25 C 8.554688 -0.351562 8.476562 -0.503906 8.375 -0.703125 L 7.625 -2.28125 L 3.5625 -2.28125 L 2.8125 -0.703125 C 2.707031 -0.503906 2.628906 -0.359375 2.578125 -0.265625 C 2.523438 -0.179688 2.4375 -0.09375 2.3125 0 C 2.195312 0.0820312 2.039062 0.125 1.84375 0.125 C 1.65625 0.125 1.394531 0.046875 1.0625 -0.109375 C 0.5 -0.390625 0.21875 -0.703125 0.21875 -1.046875 C 0.21875 -1.210938 0.300781 -1.460938 0.46875 -1.796875 L 4.421875 -9.96875 C 4.523438 -10.195312 4.6875 -10.378906 4.90625 -10.515625 C 5.125 -10.648438 5.351562 -10.71875 5.59375 -10.71875 C 6.125 -10.71875 6.515625 -10.460938 6.765625 -9.953125 Z M 5.59375 -6.453125 L 4.625 -4.453125 L 6.5625 -4.453125 Z M 5.59375 -6.453125 "/></g></g></g></svg>